C:\Users\Nicos\Documents\OpenSimProjects\SprintingProject\Study1\PredictiveResults\IC_pred_Sprinting_optimum_28-October-2023__16-43-06_p02_maxVel_01___IKTD_Plus_4_GRF.mot
version=1
nRows=10
nColumns=127
inDegrees=yes
endheader
time	ground_force_vx	ground_force_vy	ground_force_vz	ground_force_px	ground_force_py	ground_force_pz	ground_torque_x	ground_torque_y	ground_torque_z	1_ground_force_vx	1_ground_force_vy	1_ground_force_vz	1_ground_force_px	1_ground_force_py	1_ground_force_pz	1_ground_torque_x	1_ground_torque_y	1_ground_torque_z	2_ground_force_vx	2_ground_force_vy	2_ground_force_vz	2_ground_force_px	2_ground_force_py	2_ground_force_pz	2_ground_torque_x	2_ground_torque_y	2_ground_torque_z	3_ground_force_vx	3_ground_force_vy	3_ground_force_vz	3_ground_force_px	3_ground_force_py	3_ground_force_pz	3_ground_torque_x	3_ground_torque_y	3_ground_torque_z	4_ground_force_vx	4_ground_force_vy	4_ground_force_vz	4_ground_force_px	4_ground_force_py	4_ground_force_pz	4_ground_torque_x	4_ground_torque_y	4_ground_torque_z	5_ground_force_vx	5_ground_force_vy	5_ground_force_vz	5_ground_force_px	5_ground_force_py	5_ground_force_pz	5_ground_torque_x	5_ground_torque_y	5_ground_torque_z	6_ground_force_vx	6_ground_force_vy	6_ground_force_vz	6_ground_force_px	6_ground_force_py	6_ground_force_pz	6_ground_torque_x	6_ground_torque_y	6_ground_torque_z	7_ground_force_vx	7_ground_force_vy	7_ground_force_vz	7_ground_force_px	7_ground_force_py	7_ground_force_pz	7_ground_torque_x	7_ground_torque_y	7_ground_torque_z	8_ground_force_vx	8_ground_force_vy	8_ground_force_vz	8_ground_force_px	8_ground_force_py	8_ground_force_pz	8_ground_torque_x	8_ground_torque_y	8_ground_torque_z	9_ground_force_vx	9_ground_force_vy	9_ground_force_vz	9_ground_force_px	9_ground_force_py	9_ground_force_pz	9_ground_torque_x	9_ground_torque_y	9_ground_torque_z	10_ground_force_vx	10_ground_force_vy	10_ground_force_vz	10_ground_force_px	10_ground_force_py	10_ground_force_pz	10_ground_torque_x	10_ground_torque_y	10_ground_torque_z	11_ground_force_vx	11_ground_force_vy	11_ground_force_vz	11_ground_force_px	11_ground_force_py	11_ground_force_pz	11_ground_torque_x	11_ground_torque_y	11_ground_torque_z	12_ground_force_vx	12_ground_force_vy	12_ground_force_vz	12_ground_force_px	12_ground_force_py	12_ground_force_pz	12_ground_torque_x	12_ground_torque_y	12_ground_torque_z	13_ground_force_vx	13_ground_force_vy	13_ground_force_vz	13_ground_force_px	13_ground_force_py	13_ground_force_pz	13_ground_torque_x	13_ground_torque_y	13_ground_torque_z
0.056000	-81.680792	39.244507	16.598658	0.361168	-0.001839	0.416697	0.000000	0.000000	0.000000	-1.171492	0.576344	0.264621	0.318583	0.004497	0.438904	0.000000	0.000000	0.000000	-0.027580	0.014195	0.008080	0.291274	0.008324	0.433317	0.000000	0.000000	0.000000	-0.325228	0.163777	0.094282	0.293557	0.005840	0.411258	0.000000	0.000000	0.000000	-0.000000	0.000000	0.000000	0.208543	0.019619	0.466029	0.000000	0.000000	0.000000	-0.002286	0.001176	0.000723	0.261945	0.010715	0.429204	0.000000	0.000000	0.000000	-0.000000	0.000000	0.000000	0.144627	0.020280	0.412755	0.000000	0.000000	0.000000	-0.000000	0.000000	0.000000	-0.558076	0.256630	0.177590	0.000000	0.000000	0.000000	-0.000000	0.000000	0.000000	-0.536170	0.277446	0.161644	0.000000	0.000000	0.000000	-0.000000	0.000000	0.000000	-0.522514	0.288687	0.169654	0.000000	0.000000	0.000000	-0.000000	0.000000	0.000000	-0.528280	0.286519	0.191205	0.000000	0.000000	0.000000	-0.000000	0.000000	0.000000	-0.484048	0.329020	0.148720	0.000000	0.000000	0.000000	-0.000000	0.000000	0.000000	-0.512371	0.302202	0.177806	0.000000	0.000000	0.000000	-0.000000	0.000000	0.000000	-0.471800	0.356264	0.210414	0.000000	0.000000	0.000000
0.056647	-111.101606	53.820587	20.435567	0.364874	-0.002440	0.416066	0.000000	0.000000	0.000000	-2.377299	1.180373	0.498446	0.322140	0.003665	0.438247	0.000000	0.000000	0.000000	-0.068950	0.035660	0.018827	0.294711	0.007410	0.432566	0.000000	0.000000	0.000000	-0.686868	0.347390	0.185148	0.297097	0.005036	0.410470	0.000000	0.000000	0.000000	-0.000001	0.000000	0.000000	0.211761	0.018369	0.465183	0.000000	0.000000	0.000000	-0.006227	0.003220	0.001853	0.265376	0.009757	0.428390	0.000000	0.000000	0.000000	-0.000000	0.000000	0.000000	0.148036	0.019143	0.411687	0.000000	0.000000	0.000000	-0.000000	0.000000	0.000000	-0.546734	0.256529	0.176779	0.000000	0.000000	0.000000	-0.000000	0.000000	0.000000	-0.524941	0.277390	0.160916	0.000000	0.000000	0.000000	-0.000000	0.000000	0.000000	-0.511412	0.288674	0.169009	0.000000	0.000000	0.000000	-0.000000	0.000000	0.000000	-0.517235	0.286493	0.190539	0.000000	0.000000	0.000000	-0.000000	0.000000	0.000000	-0.473155	0.329076	0.148227	0.000000	0.000000	0.000000	-0.000000	0.000000	0.000000	-0.501389	0.302206	0.177203	0.000000	0.000000	0.000000	-0.000000	0.000000	0.000000	-0.461297	0.356331	0.209978	0.000000	0.000000	0.000000
0.058691	-207.863125	104.537974	20.709554	0.376273	-0.004166	0.414682	0.000000	0.000000	0.000000	-12.189498	6.300819	1.646662	0.333053	0.001223	0.436663	0.000000	0.000000	0.000000	-0.897938	0.481011	0.178497	0.305285	0.004691	0.430645	0.000000	0.000000	0.000000	-5.045014	2.636030	0.979079	0.308013	0.002622	0.408466	0.000000	0.000000	0.000000	-0.000034	0.000019	0.000010	0.221606	0.014574	0.462772	0.000000	0.000000	0.000000	-0.115074	0.061607	0.026342	0.275931	0.006861	0.426224	0.000000	0.000000	0.000000	-0.000012	0.000007	0.000004	0.158517	0.015538	0.408540	0.000000	0.000000	0.000000	-0.000000	0.000000	0.000000	-0.510914	0.256196	0.174265	0.000000	0.000000	0.000000	-0.000000	0.000000	0.000000	-0.489437	0.277187	0.158662	0.000000	0.000000	0.000000	-0.000000	0.000000	0.000000	-0.476265	0.288559	0.166941	0.000000	0.000000	0.000000	-0.000000	0.000000	0.000000	-0.482265	0.286336	0.188405	0.000000	0.000000	0.000000	-0.000000	0.000000	0.000000	-0.438688	0.329180	0.146627	0.000000	0.000000	0.000000	-0.000000	0.000000	0.000000	-0.466629	0.302141	0.175261	0.000000	0.000000	0.000000	-0.000000	0.000000	0.000000	-0.428083	0.356471	0.208542	0.000000	0.000000	0.000000
0.060172	-272.813643	142.438718	8.410139	0.384151	-0.005276	0.414273	0.000000	0.000000	0.000000	-27.907669	14.993777	1.995084	0.340573	-0.000390	0.436015	0.000000	0.000000	0.000000	-4.047524	2.265558	0.591953	0.312555	0.002843	0.429682	0.000000	0.000000	0.000000	-13.208462	7.195485	1.861380	0.315545	0.000952	0.407473	0.000000	0.000000	0.000000	-0.000542	0.000320	0.000140	0.228334	0.011965	0.461284	0.000000	0.000000	0.000000	-0.744169	0.416007	0.134924	0.283192	0.004860	0.425041	0.000000	0.000000	0.000000	-0.000204	0.000114	0.000065	0.165739	0.012927	0.406481	0.000000	0.000000	0.000000	-0.000000	0.000000	0.000000	-0.484975	0.255940	0.172483	0.000000	0.000000	0.000000	-0.000000	0.000000	0.000000	-0.463689	0.277015	0.157070	0.000000	0.000000	0.000000	-0.000000	0.000000	0.000000	-0.450729	0.288406	0.165413	0.000000	0.000000	0.000000	-0.000000	0.000000	0.000000	-0.456857	0.286153	0.186828	0.000000	0.000000	0.000000	-0.000000	0.000000	0.000000	-0.413664	0.329185	0.145425	0.000000	0.000000	0.000000	-0.000000	0.000000	0.000000	-0.441380	0.302026	0.173819	0.000000	0.000000	0.000000	-0.000000	0.000000	0.000000	-0.403985	0.356502	0.207444	0.000000	0.000000	0.000000
0.060819	-298.243208	158.510611	1.014100	0.387467	-0.005727	0.414248	0.000000	0.000000	0.000000	-43.615548	23.859754	1.984149	0.343732	-0.001057	0.435864	0.000000	0.000000	0.000000	-6.855963	3.923699	0.869738	0.315595	0.002060	0.429368	0.000000	0.000000	0.000000	-18.470350	10.278777	2.241162	0.318702	0.000236	0.407153	0.000000	0.000000	0.000000	-0.001721	0.001040	0.000420	0.231136	0.010861	0.460702	0.000000	0.000000	0.000000	-1.556160	0.889182	0.255046	0.286229	0.004006	0.424623	0.000000	0.000000	0.000000	-0.000682	0.000388	0.000211	0.168768	0.011791	0.405640	0.000000	0.000000	0.000000	-0.000000	0.000000	0.000000	-0.473652	0.255823	0.171711	0.000000	0.000000	0.000000	-0.000000	0.000000	0.000000	-0.452441	0.276932	0.156382	0.000000	0.000000	0.000000	-0.000000	0.000000	0.000000	-0.439562	0.288322	0.164737	0.000000	0.000000	0.000000	-0.000000	0.000000	0.000000	-0.445746	0.286056	0.186130	0.000000	0.000000	0.000000	-0.000000	0.000000	0.000000	-0.402725	0.329169	0.144888	0.000000	0.000000	0.000000	-0.000000	0.000000	0.000000	-0.430340	0.301957	0.173179	0.000000	0.000000	0.000000	-0.000000	0.000000	0.000000	-0.393455	0.356498	0.206949	0.000000	0.000000	0.000000
0.062862	-358.286516	206.367298	-27.258088	0.397373	-0.006995	0.414641	0.000000	0.000000	0.000000	-118.069474	70.049600	-3.413468	0.353148	-0.003015	0.435808	0.000000	0.000000	0.000000	-23.211826	14.606373	1.764063	0.324577	-0.000327	0.428702	0.000000	0.000000	0.000000	-70.911398	43.248211	4.947598	0.328056	-0.001972	0.406486	0.000000	0.000000	0.000000	-0.051686	0.034479	0.011192	0.239383	0.007481	0.459082	0.000000	0.000000	0.000000	-9.464199	5.938523	1.138182	0.295212	0.001379	0.423598	0.000000	0.000000	0.000000	-0.027127	0.016881	0.007959	0.177752	0.008204	0.403183	0.000000	0.000000	0.000000	-0.000000	0.000000	0.000000	-0.437806	0.255380	0.169221	0.000000	0.000000	0.000000	-0.000000	0.000000	0.000000	-0.416837	0.276597	0.154153	0.000000	0.000000	0.000000	-0.000000	0.000000	0.000000	-0.404225	0.287988	0.162556	0.000000	0.000000	0.000000	-0.000000	0.000000	0.000000	-0.410592	0.285682	0.183879	0.000000	0.000000	0.000000	-0.000000	0.000000	0.000000	-0.368110	0.329049	0.143144	0.000000	0.000000	0.000000	-0.000000	0.000000	0.000000	-0.395410	0.301674	0.171110	0.000000	0.000000	0.000000	-0.000000	0.000000	0.000000	-0.360152	0.356415	0.205323	0.000000	0.000000	0.000000
0.064344	-380.491614	239.889378	-51.064682	0.403811	-0.007812	0.415295	0.000000	0.000000	0.000000	-171.880095	111.719742	-13.973817	0.359247	-0.004330	0.436098	0.000000	0.000000	0.000000	-63.758521	44.461961	2.983317	0.330321	-0.002004	0.428465	0.000000	0.000000	0.000000	-131.843586	88.788411	5.231545	0.334072	-0.003548	0.406264	0.000000	0.000000	0.000000	-0.456608	0.339160	0.097470	0.244617	0.005124	0.458069	0.000000	0.000000	0.000000	-23.732263	16.479883	2.348541	0.300967	-0.000478	0.423082	0.000000	0.000000	0.000000	-0.316052	0.216831	0.095199	0.183547	0.005627	0.401549	0.000000	0.000000	0.000000	-0.000000	0.000000	0.000000	-0.411720	0.254969	0.167348	0.000000	0.000000	0.000000	-0.000000	0.000000	0.000000	-0.390954	0.276267	0.152465	0.000000	0.000000	0.000000	-0.000000	0.000000	0.000000	-0.378566	0.287684	0.160935	0.000000	0.000000	0.000000	-0.000000	0.000000	0.000000	-0.385070	0.285348	0.182204	0.000000	0.000000	0.000000	-0.000000	0.000000	0.000000	-0.342980	0.328895	0.141834	0.000000	0.000000	0.000000	-0.000000	0.000000	0.000000	-0.370051	0.301404	0.169565	0.000000	0.000000	0.000000	-0.000000	0.000000	0.000000	-0.335991	0.356287	0.204085	0.000000	0.000000	0.000000
0.064991	-383.262924	254.698851	-60.945951	0.406382	-0.008152	0.415654	0.000000	0.000000	0.000000	-191.402402	131.263483	-19.374114	0.361676	-0.004883	0.436290	0.000000	0.000000	0.000000	-86.811241	63.919492	3.037242	0.332592	-0.002725	0.428410	0.000000	0.000000	0.000000	-158.045913	112.132585	4.319654	0.336461	-0.004232	0.406219	0.000000	0.000000	0.000000	-1.066457	0.839132	0.232203	0.246672	0.004117	0.457657	0.000000	0.000000	0.000000	-39.434285	28.891505	3.624794	0.303244	-0.001278	0.422900	0.000000	0.000000	0.000000	-0.843129	0.609199	0.262641	0.185855	0.004510	0.400862	0.000000	0.000000	0.000000	-0.000000	0.000000	0.000000	-0.400290	0.254761	0.166509	0.000000	0.000000	0.000000	-0.000000	0.000000	0.000000	-0.379624	0.276097	0.151704	0.000000	0.000000	0.000000	-0.000000	0.000000	0.000000	-0.367348	0.287533	0.160218	0.000000	0.000000	0.000000	-0.000000	0.000000	0.000000	-0.373913	0.285185	0.181462	0.000000	0.000000	0.000000	-0.000000	0.000000	0.000000	-0.331996	0.328811	0.141250	0.000000	0.000000	0.000000	-0.000000	0.000000	0.000000	-0.358966	0.301269	0.168880	0.000000	0.000000	0.000000	-0.000000	0.000000	0.000000	-0.325435	0.356213	0.203529	0.000000	0.000000	0.000000
0.067034	-366.793917	304.617516	-96.239078	0.413246	-0.009225	0.417014	0.000000	0.000000	0.000000	-230.683591	198.611562	-41.507803	0.368112	-0.006592	0.437076	0.000000	0.000000	0.000000	-151.285954	140.413560	0.153923	0.338572	-0.004973	0.428380	0.000000	0.000000	0.000000	-223.754826	197.878858	-2.160352	0.342823	-0.006387	0.406234	0.000000	0.000000	0.000000	-7.263776	7.347395	1.997723	0.251999	0.001033	0.456408	0.000000	0.000000	0.000000	-107.101763	98.555206	8.983949	0.309263	-0.003770	0.422446	0.000000	0.000000	0.000000	-8.372471	7.555243	3.304450	0.192028	0.001042	0.398714	0.000000	0.000000	0.000000	-0.000000	0.000000	0.000000	-0.364032	0.253992	0.163802	0.000000	0.000000	0.000000	-0.000000	0.000000	0.000000	-0.343726	0.275455	0.149236	0.000000	0.000000	0.000000	-0.000000	0.000000	0.000000	-0.331848	0.286980	0.157916	0.000000	0.000000	0.000000	-0.000000	0.000000	0.000000	-0.338602	0.284592	0.179083	0.000000	0.000000	0.000000	-0.000000	0.000000	0.000000	-0.297269	0.328468	0.139363	0.000000	0.000000	0.000000	-0.000000	0.000000	0.000000	-0.323896	0.300765	0.166676	0.000000	0.000000	0.000000	-0.000000	0.000000	0.000000	-0.292089	0.355902	0.201715	0.000000	0.000000	0.000000
0.068516	-330.208832	340.998823	-123.380187	0.416961	-0.009988	0.418140	0.000000	0.000000	0.000000	-232.869061	250.160008	-60.846323	0.371538	-0.007781	0.437749	0.000000	0.000000	0.000000	-176.925550	205.543619	-3.151733	0.341709	-0.006557	0.428435	0.000000	0.000000	0.000000	-245.546308	268.260446	-8.063853	0.346244	-0.007923	0.406334	0.000000	0.000000	0.000000	-20.072784	26.273626	7.916806	0.254687	-0.001098	0.455504	0.000000	0.000000	0.000000	-143.508490	164.681650	14.498771	0.312442	-0.005524	0.422175	0.000000	0.000000	0.000000	-29.457796	33.227460	15.612871	0.195375	-0.001392	0.397135	0.000000	0.000000	0.000000	-0.000000	0.000000	0.000000	-0.337635	0.253338	0.161816	0.000000	0.000000	0.000000	-0.000000	0.000000	0.000000	-0.317625	0.274899	0.147415	0.000000	0.000000	0.000000	-0.000000	0.000000	0.000000	-0.306062	0.286499	0.156225	0.000000	0.000000	0.000000	-0.000000	0.000000	0.000000	-0.312952	0.284080	0.177334	0.000000	0.000000	0.000000	-0.000000	0.000000	0.000000	-0.272090	0.328144	0.137959	0.000000	0.000000	0.000000	-0.000000	0.000000	0.000000	-0.298438	0.300319	0.165050	0.000000	0.000000	0.000000	-0.000000	0.000000	0.000000	-0.267942	0.355600	0.200349	0.000000	0.000000	0.000000
